<svg width="115" height="73" viewBox="0 0 115 73" fill="none" xmlns="http://www.w3.org/2000/svg">
    <path
            d="M56.6642 0.038986C54.3067 0.383947 52.4937 0.978045 49.9761 2.23012C47.6506 3.39277 45.607 4.72151 43.3392 6.54213C42.1412 7.50035 40.0015 9.61484 39.188 10.6433C37.0867 13.2944 36.0425 15.8113 35.8375 18.7052L35.7926 19.2993L35.562 18.7371C34.2231 15.4983 31.635 13.1858 26.273 10.407C25.6515 10.0876 24.3703 9.42319 23.4222 8.9313C21.1351 7.75588 20.2639 7.18734 19.6489 6.46547C19.0211 5.72445 18.7136 5.02814 18.4509 3.71218C18.3548 3.20751 18.2395 2.76673 18.2075 2.73479C18.0986 2.62619 17.964 2.71562 17.663 3.09891C16.5675 4.49153 15.7923 6.87432 15.3951 10.0301C15.235 11.3588 15.235 15.6133 15.3951 17.089C16.1575 23.9435 18.1434 28.5302 21.5195 31.226C21.859 31.4943 22.205 31.769 22.2947 31.8265C22.4484 31.9287 22.4228 31.9351 21.654 31.8967C20.219 31.8328 18.8801 32.0309 17.3555 32.5419C15.1517 33.2766 13.153 34.3306 9.66795 36.5856C7.47701 38.0102 6.92608 38.3552 6.27905 38.7129C5.04905 39.4092 4.20342 39.6711 3.21045 39.6711C2.48655 39.6711 2.17264 39.6072 1.07717 39.2431C0.596702 39.0834 0.148264 38.9684 0.0906078 38.994C-0.0567359 39.0515 0.000920326 39.3006 0.321233 39.9586C0.955452 41.249 2.1342 42.648 3.68451 43.9576C8.57889 48.0843 16.3689 51.2273 21.6925 51.2337C23.5951 51.2337 25.6644 50.8057 27.2211 50.0774C27.5158 49.9433 27.7656 49.8283 27.7784 49.8283C27.7848 49.8283 27.6375 50.0774 27.4389 50.3841C26.3498 52.1153 25.8117 53.8017 25.517 56.4081C25.3889 57.6091 25.3697 61.014 25.485 62.924C25.7797 67.6704 25.7092 68.8075 25.0365 70.0979C24.7419 70.6601 24.1269 71.35 23.3197 72.0335C23.0442 72.2635 22.8008 72.4999 22.7815 72.551C22.7175 72.7043 23.1467 72.8257 23.9155 72.8704C27.599 73.062 33.4351 70.4812 38.4384 66.4311C41.9683 63.5756 44.345 60.5476 45.3508 57.6091C45.6134 56.8425 45.8953 55.6735 45.9658 55.0666C45.985 54.8749 46.017 54.6066 46.0426 54.4661L46.0747 54.217L46.427 54.9133C47.9837 58.0115 50.6872 60.1516 57.0806 63.3392C60.4951 65.0449 61.6162 65.7859 62.2953 66.808C62.7565 67.5043 62.9936 68.1623 63.1986 69.3058C63.3139 69.9701 63.3908 70.2065 63.4805 70.2065C63.5958 70.2065 63.9673 69.7593 64.3325 69.1844C65.3959 67.4915 66.0878 64.8149 66.312 61.4867C66.4145 60.0493 66.344 56.9319 66.1839 55.5137C65.6009 50.4224 64.3133 46.5831 62.2633 43.8681C61.6291 43.0249 60.54 41.9389 59.72 41.332C59.3676 41.0701 59.0858 40.8465 59.0922 40.8338C59.105 40.8274 59.4125 40.8529 59.7776 40.8913C61.0973 41.0382 62.7117 40.8785 64.0955 40.4696C66.658 39.7094 68.3428 38.8151 73.3845 35.5699C75.127 34.4456 76.0623 33.9026 76.735 33.6088C78.1251 33.0019 79.2975 33.0019 80.9951 33.6088C81.3859 33.7429 81.7703 33.8579 81.86 33.8579C82.0009 33.8579 82.0137 33.8387 81.9817 33.6407C81.9369 33.366 81.4436 32.3758 81.0912 31.8584C78.7209 28.3385 72.7119 24.5376 66.5619 22.6595C61.8469 21.2157 57.9711 21.2668 54.6526 22.8128C54.358 22.9469 54.1081 23.0619 54.0953 23.0619C54.0825 23.0619 54.2298 22.8255 54.4156 22.5317C55.9851 20.1297 56.5809 17.2295 56.4784 12.5214C56.4592 11.5185 56.408 10.2089 56.3631 9.61483C56.3247 9.01435 56.2862 7.59618 56.2862 6.4527C56.2798 4.61291 56.2926 4.32544 56.4016 3.92937C56.7283 2.71562 57.3241 1.88516 58.6694 0.767236C59.1626 0.358394 59.1947 0.275348 58.8936 0.153973C58.6566 0.0517623 57.1126 -0.0248956 56.6642 0.038986ZM55.8122 2.05764C55.2484 2.81145 54.8128 3.84633 54.6142 4.86205C54.4989 5.47531 54.4797 6.86154 54.5758 7.69839C55.0947 12.1445 54.6014 16.5204 53.1984 20.085C52.308 22.3337 50.7769 24.742 49.233 26.3326C48.7012 26.882 47.4584 27.7444 46.7345 28.083C44.9023 28.9262 42.2181 28.7985 39.8286 27.7636C38.983 27.3931 40.9689 28.6963 42.058 29.2265C43.5314 29.942 44.5884 30.2166 45.8633 30.2166C47.4264 30.2166 48.1375 29.9164 51.9556 27.6678C57.702 24.282 60.1556 23.5857 64.0634 24.2182C66.2928 24.5759 68.7848 25.3744 71.2384 26.5051C73.2884 27.4506 75.7292 28.8432 76.7094 29.6162C77.2859 30.0761 79.2142 31.8712 79.1694 31.9095C79.1566 31.9223 78.9323 31.9095 78.6697 31.884C77.9714 31.8201 76.9912 31.9031 76.2609 32.0948C75.3833 32.3247 74.4031 32.8294 73.1923 33.6854C69.0667 36.5792 65.6778 38.0485 61.7251 38.6618C60.6553 38.8279 58.1953 38.8918 57.0294 38.7832C55.4983 38.6362 53.5764 38.221 52.5962 37.8186C51.8851 37.5247 50.9883 37.0136 50.5334 36.6367C49.0856 35.4485 48.0222 33.3405 47.7147 31.0599C47.6378 30.5041 47.6314 30.4722 47.5865 30.7021C47.484 31.2451 47.452 33.0019 47.5289 33.7429C47.7915 36.2407 48.5795 37.7994 50.1747 38.9876C50.8601 39.4986 51.3534 39.7925 53.8391 41.1979C56.0556 42.45 57.2151 43.159 58.0928 43.8043C60.0723 45.2544 61.3728 46.6981 62.1736 48.3271C63.8136 51.6745 64.6336 55.9418 64.64 61.1673C64.64 62.4896 64.5823 63.2306 64.4094 64.1058C64.3005 64.6744 63.9097 66.2842 63.7944 66.6228L63.7303 66.84L63.5509 66.4311C63.2498 65.722 62.8014 65.096 62.0839 64.3869C61.2703 63.582 60.713 63.2243 59.1626 62.5152C55.793 60.9692 53.2369 59.2955 51.1036 57.2386C48.4834 54.7088 46.6256 51.6745 45.6839 48.391C45.4981 47.7202 45.402 46.845 45.3956 45.7399C45.3956 44.8902 45.4148 44.673 45.543 44.2067C45.8697 43.0441 46.459 41.9645 47.3175 40.9487C47.7147 40.476 48.7781 39.4922 49.1433 39.2623C49.5725 38.994 49.2201 39.109 48.4194 39.4986C45.8697 40.7443 44.0631 42.5011 43.4801 44.3025C43.179 45.216 43.1534 45.6313 43.147 49.7325C43.1342 53.6165 43.1086 54.1658 42.8844 55.7054C42.5961 57.641 42.0003 59.2764 41.1034 60.6179C39.0855 63.6203 35.6581 66.5653 31.225 69.1077C29.9565 69.8296 29.3928 70.1043 28.528 70.3982C27.8169 70.6473 26.0231 71.1647 25.8822 71.1647C25.8501 71.1647 25.9334 71.0114 26.0744 70.8326C27.0481 69.5549 27.5286 67.696 27.362 65.8306C27.3236 65.409 27.2659 64.7446 27.2275 64.3614C26.7598 59.2828 27.6439 54.4022 29.7003 50.6268C30.5203 49.1256 31.872 47.2858 32.7497 46.4745C33.6594 45.6313 34.9726 44.8136 35.8695 44.5325C36.728 44.2642 37.1187 44.2067 38.1117 44.2067C39.5787 44.2067 40.7895 44.475 42.3398 45.1458C42.5833 45.2544 42.2758 45.0052 41.6159 44.5581C39.7133 43.2868 37.8106 42.6097 36.1194 42.6097C35.2865 42.6097 34.7356 42.7247 33.8964 43.0696C33.0892 43.4018 32.5895 43.6765 30.1872 45.0819C27.0545 46.9217 25.6067 47.6435 23.9347 48.1993C22.5253 48.6656 20.8661 48.9212 19.8283 48.8381C17.2914 48.6273 14.9915 48.0652 12.333 47.0047C10.5648 46.302 7.51545 44.7305 5.99076 43.7276C5.35655 43.3188 4.2803 42.3861 3.42826 41.5237C2.81967 40.904 2.80045 40.8721 3.01186 40.9232C3.13358 40.9487 3.5692 40.9679 3.9792 40.9679C5.6192 40.9551 6.9517 40.4696 8.63014 39.2687C13.0697 36.0937 17.0095 34.4775 21.3594 34.0431C23.0058 33.8834 25.7092 34.0431 27.2851 34.4009C28.1564 34.5989 30.0975 35.4741 30.783 35.9724C32.3973 37.1542 33.5633 39.3453 33.9028 41.8495C33.9797 42.4244 33.9861 42.4372 34.0309 42.1625C34.127 41.4917 34.159 39.933 34.0886 39.1856C33.8836 37.1159 33.275 35.5891 32.2308 34.5542C31.4236 33.7557 30.847 33.3788 27.6247 31.5645C24.8059 29.9739 23.8258 29.3415 22.4869 28.2299C20.8725 26.8948 19.8667 25.5852 19.1108 23.8413C17.6309 20.4236 16.9006 16.0733 16.9967 11.2247C17.0159 10.0045 17.0544 9.51901 17.1633 8.92491C17.2786 8.29249 17.7398 6.38243 17.8487 6.06941C17.868 6.01191 17.9448 6.1269 18.0345 6.35049C18.6623 7.88364 19.9884 9.17405 21.8206 10.0365C24.524 11.3077 25.6131 11.889 27.0545 12.8536C28.5856 13.8757 29.617 14.7126 30.815 15.9072C33.7619 18.8457 35.6645 22.4486 36.4269 26.5435C36.6959 27.9936 36.2219 29.6736 35.0944 31.2707C34.6395 31.9223 33.5376 33.0466 32.9419 33.4746C32.724 33.6279 32.5575 33.7685 32.5703 33.7812C32.6087 33.8132 33.7939 33.2446 34.4153 32.8933C36.2026 31.8712 37.6761 30.3827 38.2462 29.0157C38.6883 27.968 38.7587 27.0928 38.7587 22.8383C38.7523 19.2035 38.8036 18.29 39.0726 16.7376C39.3161 15.3386 39.8158 13.8821 40.3987 12.8728C41.5326 10.918 43.8517 8.49052 46.4783 6.51019C48.5731 4.93231 51.6033 3.13085 53.0767 2.58786C53.7558 2.33233 55.7545 1.73824 55.9467 1.73185C56.0364 1.72546 56.0108 1.79573 55.8122 2.05764Z"
            fill="#fff"
    />
    <path
            d="M44.001 36.0007C44.001 37.6575 42.6578 39.0007 41.001 39.0007C39.3441 39.0007 38.001 37.6575 38.001 36.0007C38.001 34.3438 39.3441 33.0007 41.001 33.0007C42.6578 33.0007 44.001 34.3438 44.001 36.0007Z"
            fill="#fff"
    />
    <path
            d="M71.1221 69.6753C71.0537 69.9194 70.8682 70.1245 70.5654 70.2905C70.2627 70.4565 69.96 70.5395 69.6572 70.5395C68.6611 70.5395 68.1631 69.812 68.1631 68.3569C68.1631 67.6636 68.3926 65.7007 68.8516 62.4683C69.1348 60.4858 69.2764 58.9819 69.2764 57.9565C69.2764 57.7808 69.0713 57.5513 68.6611 57.2681C68.2412 56.9946 68.0312 56.7261 68.0312 56.4624C68.0312 56.0425 68.3486 55.5884 68.9834 55.1001C69.4717 54.7192 69.7695 54.2944 69.877 53.8257C69.9941 53.3569 70.126 52.7075 70.2725 51.8774C70.7705 48.8501 71.5469 46.6675 72.6016 45.3296C73.666 43.9917 75.0186 43.3227 76.6592 43.3227C77.5283 43.3227 78.2656 43.6206 78.8711 44.2163C79.4766 44.8022 79.7793 45.5347 79.7793 46.4136C79.7793 47.1265 79.6084 47.937 79.2666 48.8452C78.9346 49.7436 78.5537 50.1929 78.124 50.1929C77.8018 50.1929 77.6406 50.0317 77.6406 49.7095L77.7432 48.2886C77.7432 46.4038 77.2158 45.4614 76.1611 45.4614C75.0186 45.4614 74.0713 46.5845 73.3193 48.8306C72.5674 51.0669 72.1914 52.8882 72.1914 54.2944C72.1914 54.7436 72.4844 54.9683 73.0703 54.9683C75.6191 54.9683 77.1182 54.9585 77.5674 54.939C78.0264 54.9194 78.2559 55.1099 78.2559 55.5102C78.2559 55.9106 78.0068 56.2183 77.5088 56.4331C77.0205 56.6382 75.9463 56.8237 74.2861 56.9897C72.8701 57.1362 72.0693 57.2583 71.8838 57.3559C71.2295 60.9888 70.9023 64.2261 70.9023 67.0679C70.9023 67.9175 70.9414 68.5474 71.0195 68.9575C71.0879 69.3384 71.1221 69.5776 71.1221 69.6753Z"
            fill="#fff"
    />
    <path
            d="M84.5254 44.2017C85.2285 44.2017 85.5801 44.6509 85.5801 45.5493C85.5801 46.3501 85.1553 48.2544 84.3057 51.2622C83.7686 53.1567 83.3535 55.2466 83.0605 57.5317C82.7676 59.8169 82.6211 61.6089 82.6211 62.9077C82.6211 64.519 82.7236 66.1206 82.9287 67.7124C82.9678 68.0151 82.9873 68.2349 82.9873 68.3716C82.9873 68.8599 82.8213 69.2798 82.4893 69.6313C82.1572 69.9829 81.8057 70.1587 81.4346 70.1587C80.917 70.1587 80.5557 69.8364 80.3506 69.1919C80.1553 68.5474 80.0576 67.5073 80.0576 66.0718C80.0576 62.8003 80.4482 58.7476 81.2295 53.9136C82.0205 49.0796 82.6455 46.2524 83.1045 45.4321C83.5732 44.6118 84.0469 44.2017 84.5254 44.2017Z"
            fill="#fff"
    />
    <path
            d="M92.2598 69.7339C90.9219 69.7339 89.8184 69.2261 88.9492 68.2104C88.0801 67.1948 87.6455 65.9399 87.6455 64.4458C87.6455 61.9263 88.4902 59.4458 90.1797 57.0044C91.8789 54.5532 93.9102 53.3276 96.2734 53.3276C97.8359 53.3276 99.1006 53.9282 100.067 55.1294C101.044 56.3306 101.532 57.7612 101.532 59.4214C101.532 61.9604 100.526 64.314 98.5146 66.4819C96.5127 68.6499 94.4277 69.7339 92.2598 69.7339ZM90.2236 64.0649C90.2236 65.0513 90.4287 65.8569 90.8389 66.4819C91.2588 67.1069 91.8105 67.4194 92.4941 67.4194C93.9492 67.4194 95.4092 66.6235 96.874 65.0317C98.3389 63.4302 99.0713 61.6528 99.0713 59.6997C99.0713 58.4985 98.7881 57.5268 98.2217 56.7847C97.665 56.0327 96.9131 55.6567 95.9658 55.6567C94.3936 55.6567 93.041 56.6235 91.9082 58.5571C90.7852 60.4809 90.2236 62.3169 90.2236 64.0649Z"
            fill="#fff"
    />
    <path
            d="M112.313 65.647C112.313 65.0122 111.532 64.2895 109.97 63.479C107.987 62.4634 106.645 61.6528 105.941 61.0474C105.248 60.4321 104.901 59.7485 104.901 58.9966C104.901 57.0532 105.873 55.4419 107.816 54.1626C109.77 52.8833 111.361 52.2436 112.592 52.2436C113.383 52.2436 113.954 52.3804 114.306 52.6538C114.667 52.9272 114.848 53.4009 114.848 54.0747C114.848 54.3774 114.716 54.6362 114.452 54.8511C114.198 55.0659 113.998 55.1733 113.852 55.1733C113.744 55.1733 113.534 55.1001 113.222 54.9536C112.909 54.8169 112.704 54.7485 112.606 54.7485C112.118 54.7485 111.127 55.105 109.633 55.8179C108.139 56.5308 107.392 57.3364 107.392 58.2349C107.392 58.7817 107.655 59.2798 108.183 59.729C108.71 60.1684 109.657 60.7104 111.024 61.355C112.128 61.8823 113.007 62.4487 113.661 63.0542C114.325 63.6499 114.657 64.353 114.657 65.1636C114.657 66.6577 113.627 67.8296 111.566 68.6792C109.506 69.519 107.538 69.939 105.663 69.939C104.081 69.939 103.29 69.4018 103.29 68.3276C103.29 67.9565 103.466 67.6831 103.817 67.5073C104.179 67.3315 104.54 67.2436 104.901 67.2436C105.048 67.2436 105.326 67.2925 105.736 67.3901C106.137 67.4878 106.4 67.5366 106.527 67.5366C107.611 67.5366 108.773 67.3559 110.014 66.9946C111.254 66.6333 112.021 66.1841 112.313 65.647Z"
            fill="#fff"
    />
</svg>